<svg width="484" height="474" viewBox="0 0 484 474" fill="none" xmlns="http://www.w3.org/2000/svg">
<path d="M9.19111 107.95C37.685 74.8171 83.4096 37.7762 169.873 37.7761" stroke="#F05334" stroke-width="8" stroke-linecap="round" stroke-dasharray="10 40"/>
<path d="M68.1678 307.413C125.158 307.413 146.363 337.896 219.255 337.896" stroke="#F05334" stroke-width="8" stroke-linecap="round" stroke-dasharray="10 40"/>
<path d="M71.4638 276.408C134.101 276.408 143.712 286.208 208.653 233.195" stroke="#F05334" stroke-width="8" stroke-linecap="round" stroke-dasharray="10 40"/>
<path d="M261.018 31.352C259.951 31.352 259.012 31.288 258.202 31.16C257.391 31.0533 256.655 30.872 255.994 30.616C255.332 30.36 254.65 30.0507 253.946 29.688V26.168C254.778 26.8293 255.78 27.3733 256.954 27.8C258.148 28.2267 259.428 28.44 260.794 28.44C262.116 28.44 263.098 28.1733 263.738 27.64C264.399 27.0853 264.73 26.328 264.73 25.368C264.73 24.6213 264.484 24.024 263.994 23.576C263.524 23.1067 262.895 22.712 262.106 22.392C261.316 22.072 260.474 21.752 259.578 21.432C258.895 21.176 258.223 20.9093 257.562 20.632C256.9 20.3333 256.303 19.9707 255.77 19.544C255.236 19.096 254.81 18.5307 254.49 17.848C254.17 17.1653 254.01 16.3227 254.01 15.32C254.01 14.616 254.148 13.9013 254.426 13.176C254.703 12.4507 255.119 11.8 255.674 11.224C256.25 10.6267 256.996 10.1573 257.914 9.816C258.852 9.45333 259.972 9.272 261.274 9.272C262.127 9.272 262.863 9.32533 263.482 9.432C264.122 9.53867 264.719 9.70933 265.274 9.944C265.85 10.1573 266.468 10.424 267.13 10.744V14.2C266.596 13.8587 266.052 13.5387 265.498 13.24C264.964 12.9413 264.378 12.696 263.738 12.504C263.098 12.312 262.383 12.2053 261.594 12.184C260.698 12.1627 259.962 12.2693 259.386 12.504C258.81 12.7387 258.372 13.0693 258.074 13.496C257.775 13.9227 257.626 14.4133 257.626 14.968C257.626 15.7147 257.807 16.312 258.17 16.76C258.554 17.1867 259.087 17.5493 259.77 17.848C260.452 18.1253 261.242 18.4027 262.138 18.68C262.927 18.936 263.695 19.224 264.442 19.544C265.188 19.864 265.85 20.2587 266.426 20.728C267.002 21.176 267.46 21.7413 267.802 22.424C268.164 23.1067 268.346 23.9493 268.346 24.952C268.346 26.0613 268.09 27.1067 267.578 28.088C267.087 29.048 266.298 29.8373 265.21 30.456C264.143 31.0533 262.746 31.352 261.018 31.352ZM279.496 31.48C278.024 31.48 276.755 31.2453 275.688 30.776C274.643 30.2853 273.832 29.56 273.256 28.6C272.68 27.64 272.392 26.4453 272.392 25.016V14.936H275.752V24.536C275.752 25.9013 276.051 26.9147 276.648 27.576C277.267 28.216 278.216 28.536 279.496 28.536C280.776 28.536 281.715 28.216 282.312 27.576C282.931 26.9147 283.24 25.9013 283.24 24.536V14.936H286.472V25.016C286.472 27.1493 285.853 28.76 284.616 29.848C283.4 30.936 281.693 31.48 279.496 31.48ZM298.533 31.448C298.127 31.448 297.626 31.3947 297.029 31.288C296.431 31.2027 295.834 31.064 295.237 30.872C294.639 30.6587 294.117 30.3813 293.669 30.04L294.533 28.952V37.432H291.205V18.04C291.205 17.3787 291.407 16.824 291.813 16.376C292.239 15.928 292.794 15.576 293.477 15.32C294.159 15.0427 294.906 14.8507 295.717 14.744C296.549 14.616 297.37 14.552 298.181 14.552C299.61 14.552 300.911 14.8187 302.085 15.352C303.258 15.8853 304.197 16.792 304.901 18.072C305.605 19.3307 305.957 21.0587 305.957 23.256C305.957 24.92 305.669 26.3707 305.093 27.608C304.517 28.824 303.674 29.7733 302.565 30.456C301.455 31.1173 300.111 31.448 298.533 31.448ZM297.925 28.632C298.949 28.632 299.802 28.4187 300.485 27.992C301.167 27.5653 301.679 26.9467 302.021 26.136C302.362 25.3253 302.533 24.344 302.533 23.192C302.533 22.1253 302.405 21.1547 302.149 20.28C301.914 19.4053 301.477 18.7227 300.837 18.232C300.197 17.72 299.279 17.464 298.085 17.464C297.018 17.464 296.154 17.5813 295.493 17.816C294.853 18.0293 294.533 18.3493 294.533 18.776V27.704C295.087 28.0027 295.653 28.2373 296.229 28.408C296.805 28.5573 297.37 28.632 297.925 28.632ZM317.158 31.448C316.752 31.448 316.251 31.3947 315.654 31.288C315.056 31.2027 314.459 31.064 313.862 30.872C313.264 30.6587 312.742 30.3813 312.294 30.04L313.158 28.952V37.432H309.83V18.04C309.83 17.3787 310.032 16.824 310.438 16.376C310.864 15.928 311.419 15.576 312.102 15.32C312.784 15.0427 313.531 14.8507 314.342 14.744C315.174 14.616 315.995 14.552 316.806 14.552C318.235 14.552 319.536 14.8187 320.71 15.352C321.883 15.8853 322.822 16.792 323.526 18.072C324.23 19.3307 324.582 21.0587 324.582 23.256C324.582 24.92 324.294 26.3707 323.718 27.608C323.142 28.824 322.299 29.7733 321.19 30.456C320.08 31.1173 318.736 31.448 317.158 31.448ZM316.55 28.632C317.574 28.632 318.427 28.4187 319.11 27.992C319.792 27.5653 320.304 26.9467 320.646 26.136C320.987 25.3253 321.158 24.344 321.158 23.192C321.158 22.1253 321.03 21.1547 320.774 20.28C320.539 19.4053 320.102 18.7227 319.462 18.232C318.822 17.72 317.904 17.464 316.71 17.464C315.643 17.464 314.779 17.5813 314.118 17.816C313.478 18.0293 313.158 18.3493 313.158 18.776V27.704C313.712 28.0027 314.278 28.2373 314.854 28.408C315.43 28.5573 315.995 28.632 316.55 28.632ZM335.335 31.48C332.732 31.48 330.791 30.744 329.511 29.272C328.252 27.8 327.623 25.6987 327.623 22.968C327.623 20.0667 328.273 17.944 329.575 16.6C330.897 15.2347 332.796 14.552 335.271 14.552C337.041 14.552 338.503 14.8827 339.655 15.544C340.807 16.184 341.66 17.1333 342.215 18.392C342.769 19.6507 343.047 21.176 343.047 22.968C343.047 25.6773 342.375 27.7787 341.031 29.272C339.708 30.744 337.809 31.48 335.335 31.48ZM335.303 28.632C336.391 28.632 337.255 28.3973 337.895 27.928C338.535 27.4373 338.993 26.7653 339.271 25.912C339.569 25.0587 339.719 24.0773 339.719 22.968C339.719 21.7307 339.569 20.696 339.271 19.864C338.972 19.032 338.503 18.4133 337.863 18.008C337.223 17.5813 336.369 17.368 335.303 17.368C334.236 17.368 333.383 17.592 332.743 18.04C332.103 18.488 331.644 19.128 331.367 19.96C331.089 20.792 330.951 21.7947 330.951 22.968C330.951 24.7387 331.281 26.1253 331.943 27.128C332.604 28.1307 333.724 28.632 335.303 28.632ZM346.955 31V16.408C347.232 16.2373 347.744 16.0027 348.491 15.704C349.237 15.4053 350.123 15.1493 351.147 14.936C352.171 14.7013 353.205 14.584 354.251 14.584C354.784 14.584 355.221 14.6267 355.563 14.712C355.904 14.7973 356.192 14.8933 356.427 15V17.688C355.936 17.624 355.424 17.5813 354.891 17.56C354.357 17.5173 353.824 17.5173 353.291 17.56C352.757 17.5813 352.235 17.624 351.723 17.688C351.211 17.752 350.741 17.816 350.315 17.88V31H346.955ZM365.464 31.416C364.013 31.416 362.861 31.032 362.008 30.264C361.176 29.496 360.76 28.3653 360.76 26.872V17.72H358.168V14.936H360.76V10.456H364.216V14.936H368.12V17.72H364.216V26.2C364.216 26.9467 364.344 27.512 364.6 27.896C364.877 28.2587 365.378 28.44 366.104 28.44C366.466 28.44 366.829 28.3973 367.192 28.312C367.554 28.2053 367.864 28.0773 368.12 27.928V30.904C367.736 31.0747 367.298 31.2027 366.808 31.288C366.338 31.3733 365.89 31.416 365.464 31.416ZM376.657 31.48C375.505 31.48 374.524 31.352 373.713 31.096C372.924 30.8613 372.145 30.5627 371.377 30.2V27.032C371.932 27.3733 372.476 27.6827 373.009 27.96C373.542 28.216 374.097 28.4187 374.673 28.568C375.27 28.7173 375.932 28.792 376.657 28.792C377.574 28.792 378.289 28.6 378.801 28.216C379.334 27.832 379.601 27.352 379.601 26.776C379.601 26.2853 379.43 25.9013 379.089 25.624C378.769 25.3467 378.353 25.112 377.841 24.92C377.329 24.728 376.796 24.536 376.241 24.344C375.665 24.1947 375.089 24.024 374.513 23.832C373.937 23.6187 373.404 23.3413 372.913 23C372.444 22.6373 372.06 22.1787 371.761 21.624C371.484 21.0693 371.345 20.3867 371.345 19.576C371.345 18.68 371.526 17.9227 371.889 17.304C372.252 16.664 372.721 16.152 373.297 15.768C373.894 15.3627 374.545 15.0747 375.249 14.904C375.974 14.712 376.678 14.616 377.361 14.616C378.492 14.6373 379.409 14.776 380.113 15.032C380.838 15.288 381.542 15.5973 382.225 15.96L382.257 18.84C381.489 18.4347 380.764 18.0827 380.081 17.784C379.398 17.4853 378.609 17.336 377.713 17.336C376.881 17.336 376.188 17.496 375.633 17.816C375.078 18.1147 374.801 18.5627 374.801 19.16C374.801 19.672 374.95 20.0773 375.249 20.376C375.569 20.6747 375.974 20.9093 376.465 21.08C376.977 21.2507 377.521 21.4213 378.097 21.592C378.63 21.7627 379.185 21.944 379.761 22.136C380.337 22.3067 380.87 22.5627 381.361 22.904C381.852 23.2453 382.246 23.6933 382.545 24.248C382.865 24.8027 383.025 25.528 383.025 26.424C383.004 27.6187 382.684 28.5893 382.065 29.336C381.468 30.0827 380.678 30.6267 379.697 30.968C378.716 31.3093 377.702 31.48 376.657 31.48ZM209.168 69.48C208.187 69.48 207.227 69.352 206.288 69.096C205.349 68.8613 204.496 68.4347 203.728 67.816C202.96 67.176 202.352 66.2907 201.904 65.16C201.456 64.0293 201.232 62.568 201.232 60.776C201.232 58.2373 201.851 56.232 203.088 54.76C204.325 53.288 206.203 52.552 208.72 52.552C209.125 52.552 209.627 52.6053 210.224 52.712C210.821 52.8187 211.429 52.9787 212.048 53.192C212.667 53.384 213.189 53.64 213.616 53.96L212.752 55.08V46.216H216.08V65.64C216.08 66.3013 215.867 66.8773 215.44 67.368C215.035 67.8587 214.491 68.264 213.808 68.584C213.125 68.8827 212.379 69.1067 211.568 69.256C210.757 69.4053 209.957 69.48 209.168 69.48ZM209.264 66.568C210.224 66.568 211.045 66.4507 211.728 66.216C212.411 65.9813 212.752 65.672 212.752 65.288V56.36C212.197 56.04 211.611 55.8053 210.992 55.656C210.373 55.5067 209.776 55.432 209.2 55.432C208.155 55.432 207.291 55.6453 206.608 56.072C205.947 56.4773 205.456 57.0853 205.136 57.896C204.816 58.6853 204.656 59.6667 204.656 60.84C204.656 61.9067 204.784 62.8773 205.04 63.752C205.296 64.6053 205.755 65.288 206.416 65.8C207.099 66.312 208.048 66.568 209.264 66.568ZM220.91 69V53.032H224.27L224.302 69H220.91ZM220.814 50.376V47.336H224.398V50.376H220.814ZM235.494 69.48C233.937 69.4587 232.614 69.1387 231.526 68.52C230.46 67.88 229.649 66.9627 229.094 65.768C228.561 64.5733 228.294 63.1227 228.294 61.416C228.294 59.6027 228.518 58.12 228.966 56.968C229.436 55.816 230.065 54.92 230.854 54.28C231.665 53.64 232.572 53.2027 233.574 52.968C234.598 52.712 235.654 52.584 236.742 52.584C237.894 52.584 238.94 52.7333 239.878 53.032C240.817 53.3307 241.574 53.7893 242.15 54.408C242.726 55.0053 243.014 55.784 243.014 56.744V69.48C243.014 70.3333 242.876 71.1227 242.598 71.848C242.342 72.5947 241.916 73.256 241.318 73.832C240.742 74.408 239.974 74.856 239.014 75.176C238.054 75.496 236.881 75.656 235.494 75.656C234.385 75.656 233.393 75.56 232.518 75.368C231.644 75.1973 230.918 75.016 230.342 74.824V71.752C230.684 71.88 231.11 72.0187 231.622 72.168C232.134 72.3173 232.7 72.4453 233.318 72.552C233.958 72.68 234.609 72.744 235.27 72.744C236.529 72.744 237.468 72.584 238.086 72.264C238.726 71.944 239.153 71.528 239.366 71.016C239.58 70.5253 239.686 69.992 239.686 69.416V66.984L240.582 67.72C240.198 68.04 239.718 68.3387 239.142 68.616C238.588 68.872 237.99 69.0747 237.35 69.224C236.732 69.3947 236.113 69.48 235.494 69.48ZM236.038 66.76C236.657 66.76 237.286 66.6853 237.926 66.536C238.566 66.3653 239.153 66.12 239.686 65.8V57.384C239.686 56.8293 239.537 56.424 239.238 56.168C238.961 55.8907 238.577 55.6987 238.086 55.592C237.596 55.4853 237.073 55.432 236.518 55.432C235.217 55.432 234.214 55.6987 233.51 56.232C232.828 56.744 232.358 57.448 232.102 58.344C231.846 59.24 231.718 60.232 231.718 61.32C231.718 62.9413 232.07 64.2533 232.774 65.256C233.478 66.2587 234.566 66.76 236.038 66.76ZM254.57 69.48C252.991 69.48 251.615 69.16 250.442 68.52C249.29 67.88 248.394 66.9307 247.754 65.672C247.135 64.4133 246.826 62.8773 246.826 61.064C246.826 58.2693 247.476 56.1573 248.778 54.728C250.1 53.2773 251.935 52.552 254.282 52.552C256.01 52.552 257.407 52.936 258.474 53.704C259.54 54.472 260.308 55.5493 260.778 56.936C261.268 58.3013 261.503 59.9013 261.482 61.736H248.842L248.746 59.24H258.922L258.122 60.04C258.058 58.3973 257.716 57.2027 257.098 56.456C256.479 55.688 255.508 55.304 254.186 55.304C253.332 55.304 252.607 55.4853 252.01 55.848C251.412 56.1893 250.954 56.7867 250.634 57.64C250.335 58.472 250.186 59.624 250.186 61.096C250.186 62.888 250.602 64.2533 251.434 65.192C252.266 66.1093 253.492 66.568 255.114 66.568C255.839 66.568 256.511 66.504 257.13 66.376C257.77 66.248 258.356 66.088 258.89 65.896C259.423 65.6827 259.882 65.48 260.266 65.288V68.392C259.519 68.712 258.676 68.968 257.738 69.16C256.799 69.3733 255.743 69.48 254.57 69.48ZM269.985 69.48C268.833 69.48 267.852 69.352 267.041 69.096C266.252 68.8613 265.473 68.5627 264.705 68.2V65.032C265.26 65.3733 265.804 65.6827 266.337 65.96C266.871 66.216 267.425 66.4187 268.001 66.568C268.599 66.7173 269.26 66.792 269.985 66.792C270.903 66.792 271.617 66.6 272.129 66.216C272.663 65.832 272.929 65.352 272.929 64.776C272.929 64.2853 272.759 63.9013 272.417 63.624C272.097 63.3467 271.681 63.112 271.169 62.92C270.657 62.728 270.124 62.536 269.569 62.344C268.993 62.1947 268.417 62.024 267.841 61.832C267.265 61.6187 266.732 61.3413 266.241 61C265.772 60.6373 265.388 60.1787 265.089 59.624C264.812 59.0693 264.673 58.3867 264.673 57.576C264.673 56.68 264.855 55.9227 265.217 55.304C265.58 54.664 266.049 54.152 266.625 53.768C267.223 53.3627 267.873 53.0747 268.577 52.904C269.303 52.712 270.007 52.616 270.689 52.616C271.82 52.6373 272.737 52.776 273.441 53.032C274.167 53.288 274.871 53.5973 275.553 53.96L275.585 56.84C274.817 56.4347 274.092 56.0827 273.409 55.784C272.727 55.4853 271.937 55.336 271.041 55.336C270.209 55.336 269.516 55.496 268.961 55.816C268.407 56.1147 268.129 56.5627 268.129 57.16C268.129 57.672 268.279 58.0773 268.577 58.376C268.897 58.6747 269.303 58.9093 269.793 59.08C270.305 59.2507 270.849 59.4213 271.425 59.592C271.959 59.7627 272.513 59.944 273.089 60.136C273.665 60.3067 274.199 60.5627 274.689 60.904C275.18 61.2453 275.575 61.6933 275.873 62.248C276.193 62.8027 276.353 63.528 276.353 64.424C276.332 65.6187 276.012 66.5893 275.393 67.336C274.796 68.0827 274.007 68.6267 273.025 68.968C272.044 69.3093 271.031 69.48 269.985 69.48ZM286.011 69.416C284.56 69.416 283.408 69.032 282.555 68.264C281.723 67.496 281.307 66.3653 281.307 64.872V55.72H278.715V52.936H281.307V48.456H284.763V52.936H288.667V55.72H284.763V64.2C284.763 64.9467 284.891 65.512 285.147 65.896C285.424 66.2587 285.925 66.44 286.651 66.44C287.013 66.44 287.376 66.3973 287.739 66.312C288.101 66.2053 288.411 66.0773 288.667 65.928V68.904C288.283 69.0747 287.845 69.2027 287.355 69.288C286.885 69.3733 286.437 69.416 286.011 69.416ZM292.66 69V53.032H296.02L296.052 69H292.66ZM292.564 50.376V47.336H296.148V50.376H292.564ZM306.252 69L299.5 52.936H303.084L308.588 66.28L307.788 66.376L312.908 52.936H316.396L309.612 69H306.252ZM325.57 69.48C323.991 69.48 322.615 69.16 321.442 68.52C320.29 67.88 319.394 66.9307 318.754 65.672C318.135 64.4133 317.826 62.8773 317.826 61.064C317.826 58.2693 318.476 56.1573 319.778 54.728C321.1 53.2773 322.935 52.552 325.282 52.552C327.01 52.552 328.407 52.936 329.474 53.704C330.54 54.472 331.308 55.5493 331.778 56.936C332.268 58.3013 332.503 59.9013 332.482 61.736H319.842L319.746 59.24H329.922L329.122 60.04C329.058 58.3973 328.716 57.2027 328.098 56.456C327.479 55.688 326.508 55.304 325.186 55.304C324.332 55.304 323.607 55.4853 323.01 55.848C322.412 56.1893 321.954 56.7867 321.634 57.64C321.335 58.472 321.186 59.624 321.186 61.096C321.186 62.888 321.602 64.2533 322.434 65.192C323.266 66.1093 324.492 66.568 326.114 66.568C326.839 66.568 327.511 66.504 328.13 66.376C328.77 66.248 329.356 66.088 329.89 65.896C330.423 65.6827 330.882 65.48 331.266 65.288V68.392C330.519 68.712 329.676 68.968 328.738 69.16C327.799 69.3733 326.743 69.48 325.57 69.48ZM345.439 69V46.152H348.799V55.336L347.807 54.504C348.639 53.928 349.556 53.4693 350.559 53.128C351.583 52.7653 352.575 52.584 353.535 52.584C354.794 52.584 355.871 52.808 356.767 53.256C357.663 53.6827 358.356 54.376 358.847 55.336C359.359 56.2747 359.615 57.512 359.615 59.048V69H356.255V59.464C356.255 58.1627 355.946 57.1707 355.327 56.488C354.708 55.8053 353.791 55.464 352.575 55.464C351.935 55.464 351.284 55.56 350.623 55.752C349.983 55.944 349.375 56.2 348.799 56.52L348.767 69H345.439ZM371.257 69.48C369.679 69.48 368.303 69.16 367.129 68.52C365.977 67.88 365.081 66.9307 364.441 65.672C363.823 64.4133 363.513 62.8773 363.513 61.064C363.513 58.2693 364.164 56.1573 365.465 54.728C366.788 53.2773 368.623 52.552 370.969 52.552C372.697 52.552 374.095 52.936 375.161 53.704C376.228 54.472 376.996 55.5493 377.465 56.936C377.956 58.3013 378.191 59.9013 378.169 61.736H365.529L365.433 59.24H375.609L374.809 60.04C374.745 58.3973 374.404 57.2027 373.785 56.456C373.167 55.688 372.196 55.304 370.873 55.304C370.02 55.304 369.295 55.4853 368.697 55.848C368.1 56.1893 367.641 56.7867 367.321 57.64C367.023 58.472 366.873 59.624 366.873 61.096C366.873 62.888 367.289 64.2533 368.121 65.192C368.953 66.1093 370.18 66.568 371.801 66.568C372.527 66.568 373.199 66.504 373.817 66.376C374.457 66.248 375.044 66.088 375.577 65.896C376.111 65.6827 376.569 65.48 376.953 65.288V68.392C376.207 68.712 375.364 68.968 374.425 69.16C373.487 69.3733 372.431 69.48 371.257 69.48ZM387.857 69.48C387.025 69.48 386.225 69.3947 385.457 69.224C384.689 69.0747 383.985 68.808 383.345 68.424C382.726 68.04 382.225 67.5173 381.841 66.856C381.478 66.1733 381.297 65.3307 381.297 64.328C381.297 63.1333 381.531 62.152 382.001 61.384C382.47 60.616 383.142 60.04 384.017 59.656C384.891 59.272 385.937 59.08 387.153 59.08C387.963 59.08 388.689 59.144 389.329 59.272C389.99 59.4 390.577 59.5813 391.089 59.816C391.622 60.0293 392.07 60.2747 392.433 60.552L392.785 62.76C392.315 62.44 391.686 62.1733 390.897 61.96C390.107 61.7253 389.254 61.608 388.337 61.608C387.121 61.608 386.193 61.8213 385.553 62.248C384.934 62.6747 384.625 63.3147 384.625 64.168C384.625 64.808 384.806 65.3307 385.169 65.736C385.531 66.12 385.979 66.408 386.513 66.6C387.067 66.7707 387.643 66.856 388.241 66.856C389.499 66.856 390.427 66.7707 391.025 66.6C391.622 66.4293 391.921 66.0347 391.921 65.416V58.696C391.921 57.5653 391.579 56.744 390.897 56.232C390.214 55.6987 389.243 55.432 387.985 55.432C387.089 55.432 386.161 55.5813 385.201 55.88C384.241 56.1573 383.451 56.552 382.833 57.064V53.928C383.43 53.5227 384.294 53.2027 385.425 52.968C386.577 52.712 387.761 52.584 388.977 52.584C389.574 52.584 390.171 52.648 390.769 52.776C391.387 52.8827 391.963 53.064 392.497 53.32C393.03 53.5547 393.499 53.8853 393.905 54.312C394.331 54.7173 394.662 55.2187 394.897 55.816C395.131 56.4133 395.249 57.1173 395.249 57.928V65.608C395.249 66.6533 394.918 67.464 394.257 68.04C393.617 68.5947 392.742 68.968 391.633 69.16C390.523 69.3733 389.265 69.48 387.857 69.48ZM403.298 69H399.97V46.856H403.298V69ZM413.761 69.416C412.31 69.416 411.158 69.032 410.305 68.264C409.473 67.496 409.057 66.3653 409.057 64.872V55.72H406.465V52.936H409.057V48.456H412.513V52.936H416.417V55.72H412.513V64.2C412.513 64.9467 412.641 65.512 412.897 65.896C413.174 66.2587 413.675 66.44 414.401 66.44C414.763 66.44 415.126 66.3973 415.489 66.312C415.851 66.2053 416.161 66.0773 416.417 65.928V68.904C416.033 69.0747 415.595 69.2027 415.105 69.288C414.635 69.3733 414.187 69.416 413.761 69.416ZM420.314 69V46.152H423.674V55.336L422.682 54.504C423.514 53.928 424.431 53.4693 425.434 53.128C426.458 52.7653 427.45 52.584 428.41 52.584C429.669 52.584 430.746 52.808 431.642 53.256C432.538 53.6827 433.231 54.376 433.722 55.336C434.234 56.2747 434.49 57.512 434.49 59.048V69H431.13V59.464C431.13 58.1627 430.821 57.1707 430.202 56.488C429.583 55.8053 428.666 55.464 427.45 55.464C426.81 55.464 426.159 55.56 425.498 55.752C424.858 55.944 424.25 56.2 423.674 56.52L423.642 69H420.314Z" fill="#F05334"/>
<path d="M252.646 194V172.656H256.038L268.358 189.712L267.366 191.632V172.656H270.726V194H267.558L254.886 176.592L256.006 175.024V194H252.646ZM282.491 194.48C279.888 194.48 277.947 193.744 276.667 192.272C275.408 190.8 274.779 188.699 274.779 185.968C274.779 183.067 275.429 180.944 276.731 179.6C278.053 178.235 279.952 177.552 282.427 177.552C284.197 177.552 285.659 177.883 286.811 178.544C287.963 179.184 288.816 180.133 289.371 181.392C289.925 182.651 290.203 184.176 290.203 185.968C290.203 188.677 289.531 190.779 288.187 192.272C286.864 193.744 284.965 194.48 282.491 194.48ZM282.459 191.632C283.547 191.632 284.411 191.397 285.051 190.928C285.691 190.437 286.149 189.765 286.427 188.912C286.725 188.059 286.875 187.077 286.875 185.968C286.875 184.731 286.725 183.696 286.427 182.864C286.128 182.032 285.659 181.413 285.019 181.008C284.379 180.581 283.525 180.368 282.459 180.368C281.392 180.368 280.539 180.592 279.899 181.04C279.259 181.488 278.8 182.128 278.523 182.96C278.245 183.792 278.107 184.795 278.107 185.968C278.107 187.739 278.437 189.125 279.099 190.128C279.76 191.131 280.88 191.632 282.459 191.632ZM309.029 194.48C308.197 194.48 307.397 194.395 306.629 194.224C305.861 194.075 305.157 193.808 304.517 193.424C303.898 193.04 303.397 192.517 303.013 191.856C302.65 191.173 302.469 190.331 302.469 189.328C302.469 188.133 302.703 187.152 303.173 186.384C303.642 185.616 304.314 185.04 305.189 184.656C306.063 184.272 307.109 184.08 308.325 184.08C309.135 184.08 309.861 184.144 310.501 184.272C311.162 184.4 311.749 184.581 312.261 184.816C312.794 185.029 313.242 185.275 313.605 185.552L313.957 187.76C313.487 187.44 312.858 187.173 312.069 186.96C311.279 186.725 310.426 186.608 309.509 186.608C308.293 186.608 307.365 186.821 306.725 187.248C306.106 187.675 305.797 188.315 305.797 189.168C305.797 189.808 305.978 190.331 306.341 190.736C306.703 191.12 307.151 191.408 307.685 191.6C308.239 191.771 308.815 191.856 309.413 191.856C310.671 191.856 311.599 191.771 312.197 191.6C312.794 191.429 313.093 191.035 313.093 190.416V183.696C313.093 182.565 312.751 181.744 312.069 181.232C311.386 180.699 310.415 180.432 309.157 180.432C308.261 180.432 307.333 180.581 306.373 180.88C305.413 181.157 304.623 181.552 304.005 182.064V178.928C304.602 178.523 305.466 178.203 306.597 177.968C307.749 177.712 308.933 177.584 310.149 177.584C310.746 177.584 311.343 177.648 311.941 177.776C312.559 177.883 313.135 178.064 313.669 178.32C314.202 178.555 314.671 178.885 315.077 179.312C315.503 179.717 315.834 180.219 316.069 180.816C316.303 181.413 316.421 182.117 316.421 182.928V190.608C316.421 191.653 316.09 192.464 315.429 193.04C314.789 193.595 313.914 193.968 312.805 194.16C311.695 194.373 310.437 194.48 309.029 194.48ZM321.142 194V179.408C321.419 179.237 321.931 179.003 322.678 178.704C323.425 178.405 324.31 178.149 325.334 177.936C326.358 177.701 327.393 177.584 328.438 177.584C328.971 177.584 329.409 177.627 329.75 177.712C330.091 177.797 330.379 177.893 330.614 178V180.688C330.123 180.624 329.611 180.581 329.078 180.56C328.545 180.517 328.011 180.517 327.478 180.56C326.945 180.581 326.422 180.624 325.91 180.688C325.398 180.752 324.929 180.816 324.502 180.88V194H321.142ZM339.651 194.416C338.201 194.416 337.049 194.032 336.195 193.264C335.363 192.496 334.947 191.365 334.947 189.872V180.72H332.355V177.936H334.947V173.456H338.403V177.936H342.307V180.72H338.403V189.2C338.403 189.947 338.531 190.512 338.787 190.896C339.065 191.259 339.566 191.44 340.291 191.44C340.654 191.44 341.017 191.397 341.379 191.312C341.742 191.205 342.051 191.077 342.307 190.928V193.904C341.923 194.075 341.486 194.203 340.995 194.288C340.526 194.373 340.078 194.416 339.651 194.416ZM346.301 194V178.032H349.661L349.693 194H346.301ZM346.205 175.376V172.336H349.789V175.376H346.205ZM355.861 194V180.72H353.301V177.936H355.893V177.296C355.893 176.165 356.01 175.227 356.245 174.48C356.501 173.733 356.832 173.136 357.237 172.688C357.642 172.24 358.09 171.909 358.581 171.696C359.072 171.461 359.562 171.312 360.053 171.248C360.565 171.184 361.045 171.152 361.493 171.152C361.813 171.152 362.133 171.173 362.453 171.216C362.773 171.259 363.05 171.312 363.285 171.376V174.352C363.093 174.245 362.89 174.16 362.677 174.096C362.485 174.011 362.229 173.968 361.909 173.968C361.589 173.968 361.269 174 360.949 174.064C360.629 174.107 360.341 174.235 360.085 174.448C359.829 174.64 359.626 174.939 359.477 175.344C359.328 175.749 359.253 176.304 359.253 177.008V177.936H363.285V180.72H359.221V194H355.861ZM366.389 194V178.032H369.749L369.781 194H366.389ZM366.293 175.376V172.336H369.877V175.376H366.293ZM381.683 194.32C380.701 194.32 379.741 194.181 378.803 193.904C377.864 193.627 377.011 193.179 376.243 192.56C375.496 191.92 374.899 191.077 374.451 190.032C374.003 188.965 373.779 187.643 373.779 186.064C373.779 184.443 373.992 183.088 374.419 182C374.845 180.912 375.432 180.048 376.179 179.408C376.925 178.747 377.768 178.277 378.707 178C379.667 177.723 380.648 177.584 381.651 177.584C382.504 177.584 383.357 177.669 384.211 177.84C385.064 177.989 385.853 178.224 386.579 178.544V181.552C385.853 181.232 385.128 180.987 384.403 180.816C383.677 180.624 382.92 180.528 382.131 180.528C380.467 180.528 379.208 180.944 378.355 181.776C377.523 182.608 377.107 183.952 377.107 185.808C377.107 187.728 377.501 189.136 378.291 190.032C379.101 190.907 380.413 191.344 382.227 191.344C383.016 191.344 383.784 191.248 384.531 191.056C385.277 190.843 385.971 190.587 386.611 190.288V193.296C385.864 193.637 385.085 193.893 384.275 194.064C383.464 194.235 382.6 194.32 381.683 194.32ZM390.582 194V178.032H393.942L393.974 194H390.582ZM390.486 175.376V172.336H394.07V175.376H390.486ZM404.622 194.48C403.79 194.48 402.99 194.395 402.222 194.224C401.454 194.075 400.75 193.808 400.11 193.424C399.492 193.04 398.99 192.517 398.606 191.856C398.244 191.173 398.062 190.331 398.062 189.328C398.062 188.133 398.297 187.152 398.766 186.384C399.236 185.616 399.908 185.04 400.782 184.656C401.657 184.272 402.702 184.08 403.918 184.08C404.729 184.08 405.454 184.144 406.094 184.272C406.756 184.4 407.342 184.581 407.854 184.816C408.388 185.029 408.836 185.275 409.198 185.552L409.55 187.76C409.081 187.44 408.452 187.173 407.662 186.96C406.873 186.725 406.02 186.608 405.102 186.608C403.886 186.608 402.958 186.821 402.318 187.248C401.7 187.675 401.39 188.315 401.39 189.168C401.39 189.808 401.572 190.331 401.934 190.736C402.297 191.12 402.745 191.408 403.278 191.6C403.833 191.771 404.409 191.856 405.006 191.856C406.265 191.856 407.193 191.771 407.79 191.6C408.388 191.429 408.686 191.035 408.686 190.416V183.696C408.686 182.565 408.345 181.744 407.662 181.232C406.98 180.699 406.009 180.432 404.75 180.432C403.854 180.432 402.926 180.581 401.966 180.88C401.006 181.157 400.217 181.552 399.598 182.064V178.928C400.196 178.523 401.06 178.203 402.19 177.968C403.342 177.712 404.526 177.584 405.742 177.584C406.34 177.584 406.937 177.648 407.534 177.776C408.153 177.883 408.729 178.064 409.262 178.32C409.796 178.555 410.265 178.885 410.67 179.312C411.097 179.717 411.428 180.219 411.662 180.816C411.897 181.413 412.014 182.117 412.014 182.928V190.608C412.014 191.653 411.684 192.464 411.022 193.04C410.382 193.595 409.508 193.968 408.398 194.16C407.289 194.373 406.03 194.48 404.622 194.48ZM420.064 194H416.736V171.856H420.064V194ZM258.31 232.48C257.478 232.48 256.678 232.395 255.91 232.224C255.142 232.075 254.438 231.808 253.798 231.424C253.179 231.04 252.678 230.517 252.294 229.856C251.931 229.173 251.75 228.331 251.75 227.328C251.75 226.133 251.984 225.152 252.454 224.384C252.923 223.616 253.595 223.04 254.47 222.656C255.344 222.272 256.39 222.08 257.606 222.08C258.416 222.08 259.142 222.144 259.782 222.272C260.443 222.4 261.03 222.581 261.542 222.816C262.075 223.029 262.523 223.275 262.886 223.552L263.238 225.76C262.768 225.44 262.139 225.173 261.35 224.96C260.56 224.725 259.707 224.608 258.79 224.608C257.574 224.608 256.646 224.821 256.006 225.248C255.387 225.675 255.078 226.315 255.078 227.168C255.078 227.808 255.259 228.331 255.622 228.736C255.984 229.12 256.432 229.408 256.966 229.6C257.52 229.771 258.096 229.856 258.694 229.856C259.952 229.856 260.88 229.771 261.478 229.6C262.075 229.429 262.374 229.035 262.374 228.416V221.696C262.374 220.565 262.032 219.744 261.35 219.232C260.667 218.699 259.696 218.432 258.438 218.432C257.542 218.432 256.614 218.581 255.654 218.88C254.694 219.157 253.904 219.552 253.286 220.064V216.928C253.883 216.523 254.747 216.203 255.878 215.968C257.03 215.712 258.214 215.584 259.43 215.584C260.027 215.584 260.624 215.648 261.222 215.776C261.84 215.883 262.416 216.064 262.95 216.32C263.483 216.555 263.952 216.885 264.358 217.312C264.784 217.717 265.115 218.219 265.35 218.816C265.584 219.413 265.702 220.117 265.702 220.928V228.608C265.702 229.653 265.371 230.464 264.71 231.04C264.07 231.595 263.195 231.968 262.086 232.16C260.976 232.373 259.718 232.48 258.31 232.48ZM274.391 232L269.047 215.936H272.631L276.695 229.664L275.703 229.856L279.607 215.936H282.391L286.263 229.472H285.463L289.527 215.936H292.983L287.607 232H284.439L280.631 219.424L281.239 219.712L277.559 232H274.391ZM302.304 232.48C300.725 232.48 299.349 232.16 298.176 231.52C297.024 230.88 296.128 229.931 295.488 228.672C294.869 227.413 294.56 225.877 294.56 224.064C294.56 221.269 295.211 219.157 296.512 217.728C297.835 216.277 299.669 215.552 302.016 215.552C303.744 215.552 305.141 215.936 306.208 216.704C307.275 217.472 308.043 218.549 308.512 219.936C309.003 221.301 309.237 222.901 309.216 224.736H296.576L296.48 222.24H306.656L305.856 223.04C305.792 221.397 305.451 220.203 304.832 219.456C304.213 218.688 303.243 218.304 301.92 218.304C301.067 218.304 300.341 218.485 299.744 218.848C299.147 219.189 298.688 219.787 298.368 220.64C298.069 221.472 297.92 222.624 297.92 224.096C297.92 225.888 298.336 227.253 299.168 228.192C300 229.109 301.227 229.568 302.848 229.568C303.573 229.568 304.245 229.504 304.864 229.376C305.504 229.248 306.091 229.088 306.624 228.896C307.157 228.683 307.616 228.48 308 228.288V231.392C307.253 231.712 306.411 231.968 305.472 232.16C304.533 232.373 303.477 232.48 302.304 232.48ZM319.992 232.48C318.413 232.48 317.037 232.16 315.864 231.52C314.712 230.88 313.816 229.931 313.176 228.672C312.557 227.413 312.248 225.877 312.248 224.064C312.248 221.269 312.898 219.157 314.2 217.728C315.522 216.277 317.357 215.552 319.704 215.552C321.432 215.552 322.829 215.936 323.896 216.704C324.962 217.472 325.73 218.549 326.2 219.936C326.69 221.301 326.925 222.901 326.904 224.736H314.264L314.168 222.24H324.344L323.544 223.04C323.48 221.397 323.138 220.203 322.52 219.456C321.901 218.688 320.93 218.304 319.608 218.304C318.754 218.304 318.029 218.485 317.432 218.848C316.834 219.189 316.376 219.787 316.056 220.64C315.757 221.472 315.608 222.624 315.608 224.096C315.608 225.888 316.024 227.253 316.856 228.192C317.688 229.109 318.914 229.568 320.536 229.568C321.261 229.568 321.933 229.504 322.552 229.376C323.192 229.248 323.778 229.088 324.312 228.896C324.845 228.683 325.304 228.48 325.688 228.288V231.392C324.941 231.712 324.098 231.968 323.16 232.16C322.221 232.373 321.165 232.48 319.992 232.48ZM336.495 232.416C335.044 232.416 333.892 232.032 333.039 231.264C332.207 230.496 331.791 229.365 331.791 227.872V218.72H329.199V215.936H331.791V211.456H335.247V215.936H339.151V218.72H335.247V227.2C335.247 227.947 335.375 228.512 335.631 228.896C335.908 229.259 336.41 229.44 337.135 229.44C337.498 229.44 337.86 229.397 338.223 229.312C338.586 229.205 338.895 229.077 339.151 228.928V231.904C338.767 232.075 338.33 232.203 337.839 232.288C337.37 232.373 336.922 232.416 336.495 232.416ZM349.96 232.48C348.382 232.48 347.006 232.16 345.832 231.52C344.68 230.88 343.784 229.931 343.144 228.672C342.526 227.413 342.216 225.877 342.216 224.064C342.216 221.269 342.867 219.157 344.168 217.728C345.491 216.277 347.326 215.552 349.672 215.552C351.4 215.552 352.798 215.936 353.864 216.704C354.931 217.472 355.699 218.549 356.168 219.936C356.659 221.301 356.894 222.901 356.872 224.736H344.232L344.136 222.24H354.312L353.512 223.04C353.448 221.397 353.107 220.203 352.488 219.456C351.87 218.688 350.899 218.304 349.576 218.304C348.723 218.304 347.998 218.485 347.4 218.848C346.803 219.189 346.344 219.787 346.024 220.64C345.726 221.472 345.576 222.624 345.576 224.096C345.576 225.888 345.992 227.253 346.824 228.192C347.656 229.109 348.883 229.568 350.504 229.568C351.23 229.568 351.902 229.504 352.52 229.376C353.16 229.248 353.747 229.088 354.28 228.896C354.814 228.683 355.272 228.48 355.656 228.288V231.392C354.91 231.712 354.067 231.968 353.128 232.16C352.19 232.373 351.134 232.48 349.96 232.48ZM360.736 217.248C361.205 217.013 361.728 216.8 362.304 216.608C362.901 216.395 363.53 216.213 364.192 216.064C364.853 215.915 365.525 215.797 366.208 215.712C366.89 215.627 367.552 215.584 368.192 215.584C369.706 215.584 370.944 215.797 371.904 216.224C372.864 216.629 373.578 217.269 374.048 218.144C374.517 218.997 374.752 220.075 374.752 221.376V232H371.392V221.824C371.392 221.419 371.338 221.024 371.232 220.64C371.146 220.235 370.965 219.872 370.688 219.552C370.432 219.211 370.048 218.944 369.536 218.752C369.045 218.56 368.394 218.464 367.584 218.464C367.008 218.464 366.41 218.517 365.792 218.624C365.194 218.731 364.629 218.88 364.096 219.072V232H360.736V217.248ZM386.398 232.48C384.819 232.48 383.443 232.16 382.27 231.52C381.118 230.88 380.222 229.931 379.582 228.672C378.963 227.413 378.654 225.877 378.654 224.064C378.654 221.269 379.304 219.157 380.606 217.728C381.928 216.277 383.763 215.552 386.11 215.552C387.838 215.552 389.235 215.936 390.302 216.704C391.368 217.472 392.136 218.549 392.606 219.936C393.096 221.301 393.331 222.901 393.31 224.736H380.67L380.574 222.24H390.75L389.95 223.04C389.886 221.397 389.544 220.203 388.926 219.456C388.307 218.688 387.336 218.304 386.014 218.304C385.16 218.304 384.435 218.485 383.838 218.848C383.24 219.189 382.782 219.787 382.462 220.64C382.163 221.472 382.014 222.624 382.014 224.096C382.014 225.888 382.43 227.253 383.262 228.192C384.094 229.109 385.32 229.568 386.942 229.568C387.667 229.568 388.339 229.504 388.958 229.376C389.598 229.248 390.184 229.088 390.718 228.896C391.251 228.683 391.71 228.48 392.094 228.288V231.392C391.347 231.712 390.504 231.968 389.566 232.16C388.627 232.373 387.571 232.48 386.398 232.48ZM397.173 232V217.408C397.451 217.237 397.963 217.003 398.709 216.704C399.456 216.405 400.341 216.149 401.365 215.936C402.389 215.701 403.424 215.584 404.469 215.584C405.003 215.584 405.44 215.627 405.781 215.712C406.123 215.797 406.411 215.893 406.645 216V218.688C406.155 218.624 405.643 218.581 405.109 218.56C404.576 218.517 404.043 218.517 403.509 218.56C402.976 218.581 402.453 218.624 401.941 218.688C401.429 218.752 400.96 218.816 400.533 218.88V232H397.173ZM414.501 232.48C413.349 232.48 412.367 232.352 411.557 232.096C410.767 231.861 409.989 231.563 409.221 231.2V228.032C409.775 228.373 410.319 228.683 410.853 228.96C411.386 229.216 411.941 229.419 412.517 229.568C413.114 229.717 413.775 229.792 414.501 229.792C415.418 229.792 416.133 229.6 416.645 229.216C417.178 228.832 417.445 228.352 417.445 227.776C417.445 227.285 417.274 226.901 416.933 226.624C416.613 226.347 416.197 226.112 415.685 225.92C415.173 225.728 414.639 225.536 414.085 225.344C413.509 225.195 412.933 225.024 412.357 224.832C411.781 224.619 411.247 224.341 410.757 224C410.287 223.637 409.903 223.179 409.605 222.624C409.327 222.069 409.189 221.387 409.189 220.576C409.189 219.68 409.37 218.923 409.733 218.304C410.095 217.664 410.565 217.152 411.141 216.768C411.738 216.363 412.389 216.075 413.093 215.904C413.818 215.712 414.522 215.616 415.205 215.616C416.335 215.637 417.253 215.776 417.957 216.032C418.682 216.288 419.386 216.597 420.069 216.96L420.101 219.84C419.333 219.435 418.607 219.083 417.925 218.784C417.242 218.485 416.453 218.336 415.557 218.336C414.725 218.336 414.031 218.496 413.477 218.816C412.922 219.115 412.645 219.563 412.645 220.16C412.645 220.672 412.794 221.077 413.093 221.376C413.413 221.675 413.818 221.909 414.309 222.08C414.821 222.251 415.365 222.421 415.941 222.592C416.474 222.763 417.029 222.944 417.605 223.136C418.181 223.307 418.714 223.563 419.205 223.904C419.695 224.245 420.09 224.693 420.389 225.248C420.709 225.803 420.869 226.528 420.869 227.424C420.847 228.619 420.527 229.589 419.909 230.336C419.311 231.083 418.522 231.627 417.541 231.968C416.559 232.309 415.546 232.48 414.501 232.48Z" fill="#F05334"/>
<path d="M277.659 349.256C276.485 349.256 275.397 349.117 274.395 348.84C273.413 348.541 272.517 348.189 271.707 347.784V344.552C272.496 344.979 273.349 345.373 274.267 345.736C275.205 346.077 276.24 346.248 277.371 346.248C278.992 346.248 280.24 345.96 281.115 345.384C281.989 344.787 282.427 343.933 282.427 342.824C282.427 341.693 282 340.819 281.147 340.2C280.315 339.56 279.013 339.24 277.243 339.24H274.587V336.328H277.339C278.683 336.328 279.685 336.072 280.347 335.56C281.029 335.027 281.371 334.301 281.371 333.384C281.371 332.701 281.189 332.147 280.827 331.72C280.485 331.272 279.984 330.941 279.323 330.728C278.661 330.515 277.883 330.408 276.987 330.408C276.112 330.408 275.291 330.515 274.523 330.728C273.755 330.92 272.976 331.208 272.187 331.592V328.584C272.891 328.243 273.68 327.955 274.555 327.72C275.429 327.485 276.357 327.368 277.339 327.368C278.512 327.368 279.547 327.517 280.443 327.816C281.36 328.093 282.128 328.499 282.747 329.032C283.387 329.544 283.856 330.152 284.155 330.856C284.475 331.56 284.635 332.328 284.635 333.16C284.635 333.864 284.507 334.483 284.251 335.016C284.016 335.549 283.717 335.997 283.355 336.36C283.013 336.701 282.683 336.968 282.363 337.16C282.064 337.331 281.851 337.427 281.723 337.448C281.915 337.491 282.213 337.64 282.619 337.896C283.045 338.131 283.493 338.472 283.963 338.92C284.432 339.368 284.827 339.933 285.147 340.616C285.488 341.277 285.659 342.056 285.659 342.952C285.659 343.869 285.477 344.712 285.115 345.48C284.773 346.248 284.261 346.92 283.579 347.496C282.896 348.051 282.053 348.488 281.051 348.808C280.069 349.107 278.939 349.256 277.659 349.256ZM290.423 349V346.28C291.149 345.789 291.959 345.192 292.855 344.488C293.773 343.763 294.679 342.963 295.575 342.088C296.493 341.213 297.325 340.307 298.071 339.368C298.839 338.408 299.458 337.469 299.927 336.552C300.397 335.613 300.631 334.717 300.631 333.864C300.631 333.224 300.493 332.637 300.215 332.104C299.938 331.571 299.469 331.144 298.807 330.824C298.146 330.504 297.271 330.344 296.183 330.344C295.01 330.344 293.965 330.568 293.047 331.016C292.13 331.443 291.319 331.912 290.615 332.424V329.096C291.383 328.627 292.29 328.211 293.335 327.848C294.381 327.485 295.586 327.304 296.951 327.304C298.637 327.304 300.013 327.592 301.079 328.168C302.146 328.723 302.925 329.48 303.415 330.44C303.927 331.379 304.183 332.424 304.183 333.576C304.183 334.557 303.959 335.539 303.511 336.52C303.063 337.501 302.466 338.461 301.719 339.4C300.994 340.339 300.194 341.245 299.319 342.12C298.445 342.973 297.559 343.773 296.663 344.52C295.789 345.245 294.978 345.896 294.231 346.472L293.399 345.672H304.535V349H290.423ZM313.104 339.08C311.461 339.08 310.235 338.589 309.424 337.608C308.635 336.605 308.24 335.133 308.24 333.192C308.24 331.229 308.635 329.757 309.424 328.776C310.235 327.795 311.461 327.304 313.104 327.304C314.747 327.304 315.963 327.795 316.752 328.776C317.541 329.757 317.936 331.229 317.936 333.192C317.936 335.133 317.541 336.605 316.752 337.608C315.963 338.589 314.747 339.08 313.104 339.08ZM313.104 337C313.381 337 313.691 336.915 314.032 336.744C314.395 336.552 314.704 336.189 314.96 335.656C315.237 335.101 315.376 334.28 315.376 333.192C315.376 332.083 315.237 331.261 314.96 330.728C314.704 330.173 314.395 329.811 314.032 329.64C313.691 329.448 313.381 329.352 313.104 329.352C312.827 329.352 312.507 329.448 312.144 329.64C311.803 329.811 311.493 330.173 311.216 330.728C310.96 331.261 310.832 332.083 310.832 333.192C310.832 334.28 310.96 335.101 311.216 335.656C311.493 336.189 311.803 336.552 312.144 336.744C312.507 336.915 312.827 337 313.104 337ZM326.16 349.256C324.517 349.256 323.291 348.765 322.48 347.784C321.691 346.781 321.296 345.309 321.296 343.368C321.296 341.405 321.691 339.933 322.48 338.952C323.291 337.971 324.517 337.48 326.16 337.48C327.803 337.48 329.019 337.971 329.808 338.952C330.597 339.933 330.992 341.405 330.992 343.368C330.992 345.309 330.597 346.781 329.808 347.784C329.019 348.765 327.803 349.256 326.16 349.256ZM326.16 347.176C326.437 347.176 326.747 347.091 327.088 346.92C327.451 346.728 327.76 346.365 328.016 345.832C328.293 345.277 328.432 344.456 328.432 343.368C328.432 342.259 328.293 341.437 328.016 340.904C327.76 340.349 327.451 339.987 327.088 339.816C326.747 339.624 326.437 339.528 326.16 339.528C325.883 339.528 325.563 339.624 325.2 339.816C324.859 339.987 324.549 340.349 324.272 340.904C324.016 341.437 323.888 342.259 323.888 343.368C323.888 344.456 324.016 345.277 324.272 345.832C324.549 346.365 324.859 346.728 325.2 346.92C325.563 347.091 325.883 347.176 326.16 347.176ZM311.664 349.704L324.688 327.08H327.408L314.384 349.704H311.664ZM350.553 349.48C347.951 349.48 346.009 348.744 344.729 347.272C343.471 345.8 342.841 343.699 342.841 340.968C342.841 338.067 343.492 335.944 344.793 334.6C346.116 333.235 348.015 332.552 350.489 332.552C352.26 332.552 353.721 332.883 354.873 333.544C356.025 334.184 356.879 335.133 357.433 336.392C357.988 337.651 358.265 339.176 358.265 340.968C358.265 343.677 357.593 345.779 356.249 347.272C354.927 348.744 353.028 349.48 350.553 349.48ZM350.521 346.632C351.609 346.632 352.473 346.397 353.113 345.928C353.753 345.437 354.212 344.765 354.489 343.912C354.788 343.059 354.937 342.077 354.937 340.968C354.937 339.731 354.788 338.696 354.489 337.864C354.191 337.032 353.721 336.413 353.081 336.008C352.441 335.581 351.588 335.368 350.521 335.368C349.455 335.368 348.601 335.592 347.961 336.04C347.321 336.488 346.863 337.128 346.585 337.96C346.308 338.792 346.169 339.795 346.169 340.968C346.169 342.739 346.5 344.125 347.161 345.128C347.823 346.131 348.943 346.632 350.521 346.632ZM363.517 349V335.72H360.957V332.936H363.549V332.296C363.549 331.165 363.667 330.227 363.901 329.48C364.157 328.733 364.488 328.136 364.893 327.688C365.299 327.24 365.747 326.909 366.237 326.696C366.728 326.461 367.219 326.312 367.709 326.248C368.221 326.184 368.701 326.152 369.149 326.152C369.469 326.152 369.789 326.173 370.109 326.216C370.429 326.259 370.707 326.312 370.941 326.376V329.352C370.749 329.245 370.547 329.16 370.333 329.096C370.141 329.011 369.885 328.968 369.565 328.968C369.245 328.968 368.925 329 368.605 329.064C368.285 329.107 367.997 329.235 367.741 329.448C367.485 329.64 367.283 329.939 367.133 330.344C366.984 330.749 366.909 331.304 366.909 332.008V332.936H370.941V335.72H366.877V349H363.517ZM386.013 355.208C385.608 355.208 385.224 355.165 384.861 355.08C384.498 355.016 384.178 354.931 383.901 354.824V351.944C384.157 352.029 384.413 352.104 384.669 352.168C384.925 352.232 385.202 352.264 385.501 352.264C386.141 352.264 386.674 352.093 387.101 351.752C387.528 351.411 387.89 350.92 388.189 350.28C388.488 349.64 388.733 348.872 388.925 347.976L388.989 349.64L382.141 332.936H385.949L390.589 345.608H390.109L394.685 332.936H398.173L391.549 349.992C391.016 351.357 390.44 352.413 389.821 353.16C389.202 353.928 388.562 354.461 387.901 354.76C387.261 355.059 386.632 355.208 386.013 355.208ZM407.366 349.48C404.763 349.48 402.822 348.744 401.542 347.272C400.283 345.8 399.654 343.699 399.654 340.968C399.654 338.067 400.304 335.944 401.606 334.6C402.928 333.235 404.827 332.552 407.302 332.552C409.072 332.552 410.534 332.883 411.686 333.544C412.838 334.184 413.691 335.133 414.246 336.392C414.8 337.651 415.078 339.176 415.078 340.968C415.078 343.677 414.406 345.779 413.062 347.272C411.739 348.744 409.84 349.48 407.366 349.48ZM407.334 346.632C408.422 346.632 409.286 346.397 409.926 345.928C410.566 345.437 411.024 344.765 411.302 343.912C411.6 343.059 411.75 342.077 411.75 340.968C411.75 339.731 411.6 338.696 411.302 337.864C411.003 337.032 410.534 336.413 409.894 336.008C409.254 335.581 408.4 335.368 407.334 335.368C406.267 335.368 405.414 335.592 404.774 336.04C404.134 336.488 403.675 337.128 403.398 337.96C403.12 338.792 402.982 339.795 402.982 340.968C402.982 342.739 403.312 344.125 403.974 345.128C404.635 346.131 405.755 346.632 407.334 346.632ZM426.09 349.48C424.618 349.48 423.348 349.245 422.282 348.776C421.236 348.285 420.426 347.56 419.85 346.6C419.274 345.64 418.986 344.445 418.986 343.016V332.936H422.346V342.536C422.346 343.901 422.644 344.915 423.242 345.576C423.86 346.216 424.81 346.536 426.09 346.536C427.37 346.536 428.308 346.216 428.906 345.576C429.524 344.915 429.834 343.901 429.834 342.536V332.936H433.066V343.016C433.066 345.149 432.447 346.76 431.21 347.848C429.994 348.936 428.287 349.48 426.09 349.48ZM437.798 349V334.408C438.076 334.237 438.588 334.003 439.334 333.704C440.081 333.405 440.966 333.149 441.99 332.936C443.014 332.701 444.049 332.584 445.094 332.584C445.628 332.584 446.065 332.627 446.406 332.712C446.748 332.797 447.036 332.893 447.27 333V335.688C446.78 335.624 446.268 335.581 445.734 335.56C445.201 335.517 444.668 335.517 444.134 335.56C443.601 335.581 443.078 335.624 442.566 335.688C442.054 335.752 441.585 335.816 441.158 335.88V349H437.798ZM298.043 387.48C297.062 387.48 296.102 387.352 295.163 387.096C294.224 386.861 293.371 386.435 292.603 385.816C291.835 385.176 291.227 384.291 290.779 383.16C290.331 382.029 290.107 380.568 290.107 378.776C290.107 376.237 290.726 374.232 291.963 372.76C293.2 371.288 295.078 370.552 297.595 370.552C298 370.552 298.502 370.605 299.099 370.712C299.696 370.819 300.304 370.979 300.923 371.192C301.542 371.384 302.064 371.64 302.491 371.96L301.627 373.08V364.216H304.955V383.64C304.955 384.301 304.742 384.877 304.315 385.368C303.91 385.859 303.366 386.264 302.683 386.584C302 386.883 301.254 387.107 300.443 387.256C299.632 387.405 298.832 387.48 298.043 387.48ZM298.139 384.568C299.099 384.568 299.92 384.451 300.603 384.216C301.286 383.981 301.627 383.672 301.627 383.288V374.36C301.072 374.04 300.486 373.805 299.867 373.656C299.248 373.507 298.651 373.432 298.075 373.432C297.03 373.432 296.166 373.645 295.483 374.072C294.822 374.477 294.331 375.085 294.011 375.896C293.691 376.685 293.531 377.667 293.531 378.84C293.531 379.907 293.659 380.877 293.915 381.752C294.171 382.605 294.63 383.288 295.291 383.8C295.974 384.312 296.923 384.568 298.139 384.568ZM315.513 387.48C314.681 387.48 313.881 387.395 313.113 387.224C312.345 387.075 311.641 386.808 311.001 386.424C310.382 386.04 309.881 385.517 309.497 384.856C309.134 384.173 308.953 383.331 308.953 382.328C308.953 381.133 309.188 380.152 309.657 379.384C310.126 378.616 310.798 378.04 311.673 377.656C312.548 377.272 313.593 377.08 314.809 377.08C315.62 377.08 316.345 377.144 316.985 377.272C317.646 377.4 318.233 377.581 318.745 377.816C319.278 378.029 319.726 378.275 320.089 378.552L320.441 380.76C319.972 380.44 319.342 380.173 318.553 379.96C317.764 379.725 316.91 379.608 315.993 379.608C314.777 379.608 313.849 379.821 313.209 380.248C312.59 380.675 312.281 381.315 312.281 382.168C312.281 382.808 312.462 383.331 312.825 383.736C313.188 384.12 313.636 384.408 314.169 384.6C314.724 384.771 315.3 384.856 315.897 384.856C317.156 384.856 318.084 384.771 318.681 384.6C319.278 384.429 319.577 384.035 319.577 383.416V376.696C319.577 375.565 319.236 374.744 318.553 374.232C317.87 373.699 316.9 373.432 315.641 373.432C314.745 373.432 313.817 373.581 312.857 373.88C311.897 374.157 311.108 374.552 310.489 375.064V371.928C311.086 371.523 311.95 371.203 313.081 370.968C314.233 370.712 315.417 370.584 316.633 370.584C317.23 370.584 317.828 370.648 318.425 370.776C319.044 370.883 319.62 371.064 320.153 371.32C320.686 371.555 321.156 371.885 321.561 372.312C321.988 372.717 322.318 373.219 322.553 373.816C322.788 374.413 322.905 375.117 322.905 375.928V383.608C322.905 384.653 322.574 385.464 321.913 386.04C321.273 386.595 320.398 386.968 319.289 387.16C318.18 387.373 316.921 387.48 315.513 387.48ZM327.722 387V371.032H331.082L331.114 387H327.722ZM327.626 368.376V365.336H331.21V368.376H327.626ZM339.267 387H335.939V364.856H339.267V387ZM346.497 393.208C346.092 393.208 345.708 393.165 345.345 393.08C344.983 393.016 344.663 392.931 344.385 392.824V389.944C344.641 390.029 344.897 390.104 345.153 390.168C345.409 390.232 345.687 390.264 345.985 390.264C346.625 390.264 347.159 390.093 347.585 389.752C348.012 389.411 348.375 388.92 348.673 388.28C348.972 387.64 349.217 386.872 349.409 385.976L349.473 387.64L342.625 370.936H346.433L351.073 383.608H350.593L355.169 370.936H358.657L352.033 387.992C351.5 389.357 350.924 390.413 350.305 391.16C349.687 391.928 349.047 392.461 348.385 392.76C347.745 393.059 347.116 393.208 346.497 393.208ZM372.47 387V373.72H369.91V370.936H372.502V370.296C372.502 369.165 372.62 368.227 372.854 367.48C373.11 366.733 373.441 366.136 373.846 365.688C374.252 365.24 374.7 364.909 375.19 364.696C375.681 364.461 376.172 364.312 376.662 364.248C377.174 364.184 377.654 364.152 378.102 364.152C378.422 364.152 378.742 364.173 379.062 364.216C379.382 364.259 379.66 364.312 379.894 364.376V367.352C379.702 367.245 379.5 367.16 379.286 367.096C379.094 367.011 378.838 366.968 378.518 366.968C378.198 366.968 377.878 367 377.558 367.064C377.238 367.107 376.95 367.235 376.694 367.448C376.438 367.64 376.236 367.939 376.086 368.344C375.937 368.749 375.862 369.304 375.862 370.008V370.936H379.894V373.72H375.83V387H372.47ZM382.998 387V371.032H386.358L386.39 387H382.998ZM382.902 368.376V365.336H386.486V368.376H382.902ZM398.004 387.48C397.13 387.48 396.287 387.427 395.476 387.32C394.666 387.213 393.94 387.032 393.3 386.776C392.66 386.499 392.148 386.125 391.764 385.656C391.402 385.187 391.22 384.579 391.22 383.832V364.504H394.548V373.176L393.684 372.088C394.09 371.768 394.591 371.501 395.188 371.288C395.807 371.075 396.426 370.904 397.044 370.776C397.684 370.648 398.228 370.584 398.676 370.584C401.108 370.584 402.932 371.309 404.148 372.76C405.364 374.189 405.972 376.205 405.972 378.808C405.972 380.557 405.738 381.997 405.268 383.128C404.82 384.259 404.212 385.144 403.444 385.784C402.698 386.403 401.844 386.84 400.884 387.096C399.946 387.352 398.986 387.48 398.004 387.48ZM397.844 384.568C399.103 384.568 400.074 384.312 400.756 383.8C401.439 383.288 401.908 382.616 402.164 381.784C402.42 380.931 402.548 379.981 402.548 378.936C402.548 377.741 402.388 376.739 402.068 375.928C401.748 375.117 401.268 374.499 400.628 374.072C399.988 373.645 399.167 373.432 398.164 373.432C397.61 373.432 397.002 373.507 396.34 373.656C395.7 373.805 395.103 374.04 394.548 374.36V383C394.548 383.427 394.719 383.757 395.06 383.992C395.402 384.227 395.818 384.387 396.308 384.472C396.82 384.536 397.332 384.568 397.844 384.568ZM416.788 387.48C415.21 387.48 413.834 387.16 412.66 386.52C411.508 385.88 410.612 384.931 409.972 383.672C409.354 382.413 409.044 380.877 409.044 379.064C409.044 376.269 409.695 374.157 410.996 372.728C412.319 371.277 414.154 370.552 416.5 370.552C418.228 370.552 419.626 370.936 420.692 371.704C421.759 372.472 422.527 373.549 422.996 374.936C423.487 376.301 423.722 377.901 423.7 379.736H411.06L410.964 377.24H421.14L420.34 378.04C420.276 376.397 419.935 375.203 419.316 374.456C418.698 373.688 417.727 373.304 416.404 373.304C415.551 373.304 414.826 373.485 414.228 373.848C413.631 374.189 413.172 374.787 412.852 375.64C412.554 376.472 412.404 377.624 412.404 379.096C412.404 380.888 412.82 382.253 413.652 383.192C414.484 384.109 415.711 384.568 417.332 384.568C418.058 384.568 418.73 384.504 419.348 384.376C419.988 384.248 420.575 384.088 421.108 383.896C421.642 383.683 422.1 383.48 422.484 383.288V386.392C421.738 386.712 420.895 386.968 419.956 387.16C419.018 387.373 417.962 387.48 416.788 387.48ZM427.564 387V372.408C427.841 372.237 428.353 372.003 429.1 371.704C429.847 371.405 430.732 371.149 431.756 370.936C432.78 370.701 433.815 370.584 434.86 370.584C435.393 370.584 435.831 370.627 436.172 370.712C436.513 370.797 436.801 370.893 437.036 371V373.688C436.545 373.624 436.033 373.581 435.5 373.56C434.967 373.517 434.433 373.517 433.9 373.56C433.367 373.581 432.844 373.624 432.332 373.688C431.82 373.752 431.351 373.816 430.924 373.88V387H427.564Z" fill="#F05334"/>
</svg>
